<?xml version="1.0" encoding="UTF-8"?>
<svg version="1.1" xmlns="http://www.w3.org/2000/svg" width="1024" height="1024">
<path d="M0 0 C337.92 0 675.84 0 1024 0 C1024 337.92 1024 675.84 1024 1024 C686.08 1024 348.16 1024 0 1024 C0 686.08 0 348.16 0 0 Z " fill="#ECE8E3" transform="translate(0,0)"/>
<path d="M0 0 C1.13368898 -0.00679667 1.13368898 -0.00679667 2.29028076 -0.01373065 C4.80091962 -0.02630288 7.31133955 -0.02475894 9.82200623 -0.02310181 C11.63134029 -0.02909173 13.44067181 -0.03589834 15.25 -0.04345703 C20.15121731 -0.06108148 25.05236472 -0.06581104 29.95361066 -0.0670886 C33.02188604 -0.06851329 36.09014384 -0.072789 39.15841484 -0.07808304 C49.88059994 -0.09657474 60.6027354 -0.10475512 71.32493591 -0.10317993 C81.2894042 -0.10198023 91.25365529 -0.1230512 101.21806866 -0.15466726 C109.79589839 -0.18090518 118.37365755 -0.19154402 126.95152706 -0.19026911 C132.06434613 -0.18976149 137.17697226 -0.19533287 142.28975105 -0.21662521 C147.10551578 -0.23613347 151.92090608 -0.23604686 156.7366848 -0.22159195 C158.49292174 -0.21951795 160.24918289 -0.22411948 162.00537872 -0.23631287 C177.19434718 -0.33484315 191.06851707 0.9426582 203.07762146 11.26742554 C203.73375427 11.81398804 204.38988708 12.36055054 205.06590271 12.92367554 C211.97491458 19.19652571 216.68734603 28.64953739 217.33489037 37.97072792 C217.3483826 39.37951328 217.35109559 40.78842864 217.345047 42.19726562 C217.34957811 42.97796744 217.35410922 43.75866925 217.35877764 44.56302869 C217.37140185 47.16979598 217.36980254 49.77635379 217.3681488 52.38314819 C217.37413544 54.25616727 217.3809413 56.12918389 217.38850403 58.00219727 C217.4061612 63.08514343 217.4108594 68.16802224 217.4121356 73.25099611 C217.41355835 76.43012852 217.41783039 79.60924387 217.42313004 82.78837204 C217.44163206 93.88963658 217.44980076 104.99085312 217.44822693 116.09213257 C217.44702671 126.42243151 217.46810509 136.75252112 217.49971426 147.08276713 C217.52591782 155.96454077 217.53659245 164.84624624 217.53531611 173.72805822 C217.53480751 179.02692675 217.54043358 184.32560937 217.56167221 189.62443924 C217.58112237 194.61334789 217.58113284 199.60189464 217.56663895 204.5908165 C217.56455788 206.4144265 217.56920956 208.23805954 217.58135986 210.06163025 C217.67549158 225.17737133 215.94822087 237.16250841 205.00730896 248.39242554 C193.87146018 258.94626132 181.75342949 260.55566081 166.91746521 260.68148804 C165.46123367 260.70060451 164.00501114 260.72041763 162.54879761 260.74085999 C158.54697924 260.79386947 154.5451343 260.83348824 150.54312897 260.86932755 C148.007584 260.89249441 145.47207996 260.91837214 142.93656921 260.94500732 C130.42951746 261.07481077 117.92233346 261.16488408 105.41487885 261.24533844 C101.95094757 261.26826391 98.48703293 261.29300383 95.02311707 261.31814575 C79.99560763 261.42611106 64.96826862 261.50505769 49.94044495 261.55252075 C44.95946576 261.5688108 39.97865415 261.59406678 34.99775696 261.62686157 C29.06305425 261.66516215 23.12861062 261.68323573 17.19378853 261.68650246 C14.99692874 261.69090858 12.80007011 261.70211641 10.60328484 261.72073936 C-5.93838691 261.85407438 -21.26333662 261.04446927 -34.14112854 249.23226929 C-44.78888353 237.96869265 -47.23920735 226.08844888 -47.15284729 211.05258179 C-47.15215462 209.69165565 -47.15226845 208.33072891 -47.15310669 206.96980286 C-47.15235925 203.21559797 -47.13808722 199.46155678 -47.12042236 195.70739746 C-47.10984182 193.32164683 -47.10221847 190.93590509 -47.09559631 188.55014038 C-47.07061078 179.63437338 -47.03231497 170.71874228 -46.98439026 161.80307007 C-46.93612435 152.8144824 -46.90430931 143.82593239 -46.87989807 134.83724976 C-46.84807791 123.31809644 -46.79936163 111.79912899 -46.73365688 100.28011799 C-46.69743091 93.89348333 -46.66727829 87.50696194 -46.65220642 81.12023926 C-46.63720715 75.03199951 -46.60279994 68.94415795 -46.55425835 62.85609627 C-46.53943555 60.59533152 -46.53132751 58.33451122 -46.53044319 56.07369804 C-46.51369584 33.95182672 -46.51369584 33.95182672 -41.92237854 25.26742554 C-41.40417542 24.21168335 -40.88597229 23.15594116 -40.35206604 22.06820679 C-33.08202732 10.43249155 -23.30103934 3.95237529 -10.10703671 0.70266604 C-6.74573649 0.03300796 -3.41208999 -0.01531182 0 0 Z " fill="#D82724" transform="translate(153.92237854003906,357.7325744628906)"/>
<path d="M0 0 C12.36976016 -0.28321772 12.36976016 -0.28321772 16.6796875 3.15234375 C18.39446996 5.97596943 18.9286176 8.06960508 18.92019653 11.3538208 C18.92294586 12.18390656 18.92569519 13.01399231 18.92852783 13.86923218 C18.917742 15.22221909 18.917742 15.22221909 18.90673828 16.60253906 C18.90703033 17.55897308 18.90732239 18.5154071 18.90762329 19.50082397 C18.90623044 22.66079799 18.89067116 25.82053595 18.875 28.98046875 C18.87126972 31.17193472 18.86842282 33.36340237 18.86642456 35.55487061 C18.85878933 41.32198697 18.8391417 47.08900255 18.8170166 52.8560791 C18.79655586 58.74127845 18.78742235 64.62649408 18.77734375 70.51171875 C18.75589578 82.05863802 18.72176108 93.6054825 18.6796875 105.15234375 C18.86980911 104.33061676 19.05993073 103.50888977 19.2558136 102.66226196 C26.56269185 71.11656397 26.56269185 71.11656397 29.8671875 58.52734375 C30.18365234 57.26535156 30.50011719 56.00335938 30.82617188 54.703125 C31.30086914 52.89521484 31.30086914 52.89521484 31.78515625 51.05078125 C32.18963989 49.48336182 32.18963989 49.48336182 32.60229492 47.88427734 C33.82246843 44.79029557 35.06711968 43.194612 37.6796875 41.15234375 C41.3781879 41.30028377 43.03774323 41.51039948 45.6796875 44.15234375 C46.62086353 46.88558137 47.47563574 49.59789518 48.28125 52.37109375 C48.5225766 53.18477417 48.7639032 53.99845459 49.01254272 54.83679199 C49.52149362 56.55745314 50.02732407 58.27903989 50.53027344 60.00146484 C51.30217424 62.64374068 52.0838332 65.28297479 52.8671875 67.921875 C53.35995119 69.59227805 53.85215765 71.2628456 54.34375 72.93359375 C54.57808746 73.7263269 54.81242493 74.51906006 55.05386353 75.33581543 C56.6796875 80.91939143 56.6796875 80.91939143 56.6796875 83.15234375 C57.63335205 83.1366333 58.5870166 83.12092285 59.56958008 83.10473633 C63.10855663 83.05042697 66.64749636 83.01599042 70.18676758 82.98754883 C71.71840611 82.97246439 73.25000148 82.95199397 74.78149414 82.92602539 C76.98334404 82.88962528 79.18462283 82.87261462 81.38671875 82.859375 C82.07119583 82.84389114 82.75567291 82.82840729 83.46089172 82.81245422 C86.31240386 82.81144533 88.22267137 82.8369627 90.6081543 84.4831543 C92.31060917 87.13516705 92.12599899 89.09192209 91.6796875 92.15234375 C89.18601355 94.90193463 87.62314361 95.15837651 83.89257812 95.55639648 C82.37389678 95.58287314 80.85483876 95.59168255 79.3359375 95.5859375 C78.12677673 95.59380028 78.12677673 95.59380028 76.89318848 95.6018219 C75.19198761 95.60823403 73.49074236 95.60691554 71.78955078 95.59838867 C69.18832476 95.58987203 66.58929076 95.618659 63.98828125 95.65039062 C62.33333399 95.65200264 60.67838285 95.6514251 59.0234375 95.6484375 C58.24730103 95.65967148 57.47116455 95.67090546 56.67150879 95.68247986 C53.22433242 95.63803264 51.1007082 95.45448952 48.26464844 93.41918945 C46.61313003 91.0571518 45.75698537 89.15367255 44.9765625 86.38671875 C44.58984375 85.05253906 44.58984375 85.05253906 44.1953125 83.69140625 C43.94265625 82.77101563 43.69 81.850625 43.4296875 80.90234375 C43.1615625 79.96648437 42.8934375 79.030625 42.6171875 78.06640625 C41.95957841 75.76477442 41.31424836 73.46041582 40.6796875 71.15234375 C38.94774517 74.29181977 38.04712432 77.28983912 37.23095703 80.77539062 C36.83011398 82.46734558 36.83011398 82.46734558 36.4211731 84.19348145 C36.13781097 85.40709351 35.85444885 86.62070557 35.5625 87.87109375 C35.10655055 89.78093311 34.65058415 91.69076861 34.19361687 93.60036469 C33.06923496 98.30346213 31.95416788 103.00869152 30.85302734 107.71728516 C30.23407028 110.36200053 29.60754377 113.0047009 28.97262573 115.64562988 C28.37538346 118.1313657 27.78948023 120.61985899 27.21609497 123.11120605 C26.80579544 124.80316101 26.80579544 124.80316101 26.38720703 126.52929688 C26.15341339 127.52094849 25.91961975 128.5126001 25.67874146 129.53430176 C24.51338602 132.58814029 23.2322583 134.12999398 20.6796875 136.15234375 C19.6896875 136.15234375 18.6996875 136.15234375 17.6796875 136.15234375 C17.7111084 137.61256958 17.7111084 137.61256958 17.74316406 139.10229492 C17.81576936 142.72698151 17.86156085 146.3516043 17.89941406 149.97680664 C17.91948308 151.54332298 17.94674501 153.10976484 17.98144531 154.67602539 C18.03017504 156.93264169 18.0527022 159.18826458 18.0703125 161.4453125 C18.09095764 162.14134079 18.11160278 162.83736908 18.13287354 163.55448914 C18.13451782 167.1481631 17.75984108 169.02915656 15.78027344 172.0715332 C12.97744305 174.84797711 11.49822185 175.27757305 7.67651367 175.34521484 C6.85193161 175.36127777 6.02734955 175.3773407 5.17778015 175.39389038 C1.40490551 175.43836903 -2.36779359 175.47940638 -6.14086914 175.50244141 C-8.13024597 175.51899926 -10.11956335 175.54628703 -12.10864258 175.58447266 C-14.97769005 175.63926639 -17.84534337 175.66111892 -20.71484375 175.67578125 C-21.60146194 175.69845062 -22.48808014 175.72112 -23.40156555 175.74447632 C-27.90233698 175.7290965 -29.71911951 175.62883377 -33.3581543 172.74462891 C-36.05239728 169.18515747 -36.44445195 167.54607642 -36.43383789 163.15185547 C-36.43376236 162.11092743 -36.43368683 161.06999939 -36.43360901 159.99752808 C-36.42844772 158.87041412 -36.42328644 157.74330017 -36.41796875 156.58203125 C-36.4165538 155.43066681 -36.41513885 154.27930237 -36.41368103 153.0930481 C-36.40806966 149.40445389 -36.3955152 145.7159197 -36.3828125 142.02734375 C-36.37779897 139.53125087 -36.37323581 137.03515705 -36.36914062 134.5390625 C-36.35809653 128.41013566 -36.3413473 122.28124399 -36.3203125 116.15234375 C-36.99825363 116.16344681 -37.67619476 116.17454987 -38.37467957 116.18598938 C-45.43104884 116.29661162 -52.4871718 116.37202363 -59.54418945 116.42700195 C-62.17775477 116.45214532 -64.81125032 116.48626459 -67.44458008 116.52954102 C-71.23015559 116.59019585 -75.01480848 116.61855645 -78.80078125 116.640625 C-80.5666584 116.67933464 -80.5666584 116.67933464 -82.36820984 116.71882629 C-87.17494103 116.72047541 -90.3578458 116.71088453 -94.56347656 114.27026367 C-97.10693101 109.7563036 -97.01936492 105.88136341 -96.94921875 100.77734375 C-96.95283669 99.27421631 -96.95283669 99.27421631 -96.95652771 97.74072266 C-96.95554994 95.62593623 -96.94217312 93.511124 -96.91723633 91.39648438 C-96.88292744 88.16317623 -96.89658187 84.93260176 -96.91601562 81.69921875 C-96.90911696 79.64191547 -96.8994444 77.58461924 -96.88671875 75.52734375 C-96.89167862 74.5626416 -96.89663849 73.59793945 -96.90174866 72.60400391 C-96.82591877 68.27323723 -96.73010145 65.81429038 -94.40991211 62.06640625 C-91.19414208 59.12077744 -89.40631444 59.02888793 -85.13623047 59.03881836 C-84.05526093 59.03889389 -82.97429138 59.03896942 -81.86056519 59.03904724 C-80.10427292 59.04678917 -80.10427292 59.04678917 -78.3125 59.0546875 C-77.11674347 59.05610245 -75.92098694 59.0575174 -74.68899536 59.05897522 C-70.85774263 59.06458712 -67.02654766 59.07714167 -63.1953125 59.08984375 C-60.60286543 59.09485722 -58.01041744 59.09942039 -55.41796875 59.10351562 C-49.05206352 59.11456042 -42.68619213 59.13131016 -36.3203125 59.15234375 C-36.31666687 58.49945877 -36.31302124 57.84657379 -36.30926514 57.17390442 C-36.2674442 50.37656093 -36.19810093 43.57989292 -36.11279297 36.78295898 C-36.08457302 34.24656938 -36.06336365 31.71009167 -36.04931641 29.17358398 C-36.02790207 25.52672176 -35.9812563 21.88092011 -35.9296875 18.234375 C-35.92845886 17.10087112 -35.92723022 15.96736725 -35.92596436 14.79951477 C-35.781449 7.02561478 -35.781449 7.02561478 -33.62475586 2.94140625 C-30.82513718 0.76791269 -29.3630465 0.5029633 -25.83984375 0.4453125 C-24.76565186 0.41598633 -23.69145996 0.38666016 -22.5847168 0.35644531 C-21.44558838 0.3509668 -20.30645996 0.34548828 -19.1328125 0.33984375 C-17.38834839 0.30648926 -17.38834839 0.30648926 -15.60864258 0.27246094 C-13.26953401 0.23169921 -10.93020951 0.20177604 -8.59082031 0.18310547 C-5.72480132 0.15614829 -2.86459519 0.08941447 0 0 Z " fill="#EDE9E4" transform="translate(248.3203125,400.84765625)"/>
<path d="M0 0 C13.86 0 27.72 0 42 0 C44.31 5.3625 46.62 10.725 49 16.25 C56.11469933 32.73144842 63.35853145 49.15274083 70.671875 65.546875 C71.11666199 66.54512299 71.11666199 66.54512299 71.57043457 67.5635376 C72.81668196 70.35867724 74.06870006 73.15073896 75.33789062 75.93554688 C78 81.79591725 78 81.79591725 78 84 C78.66 84 79.32 84 80 84 C80.36867188 82.79601562 80.73734375 81.59203125 81.1171875 80.3515625 C83.07924475 74.47909546 85.65097751 68.91550733 88.23986816 63.29730225 C89.79392884 59.92224082 91.33102426 56.53948736 92.8671875 53.15625 C93.19477051 52.43500946 93.52235352 51.71376892 93.85986328 50.97067261 C98.08263303 41.64627549 102.16578958 32.26069716 106.25 22.875 C106.623526 22.01767273 106.997052 21.16034546 107.38189697 20.27703857 C108.4484463 17.82841541 109.51365644 15.37921585 110.578125 12.9296875 C111.05380417 11.83630066 111.05380417 11.83630066 111.53909302 10.7208252 C113.08093113 7.16518666 114.56025973 3.59935067 116 0 C129.2 0 142.4 0 156 0 C156 47.85 156 95.7 156 145 C146.43 145 136.86 145 127 145 C126.88365121 111.98279769 127.10402102 79.00586394 128 46 C125.75221511 48.05983128 124.41981269 49.85044146 123.21337891 52.64404297 C122.8947438 53.37205109 122.5761087 54.1000592 122.24781799 54.85012817 C121.91080368 55.63950775 121.57378937 56.42888733 121.2265625 57.2421875 C120.68593422 58.48438553 120.68593422 58.48438553 120.13438416 59.75167847 C119.36044675 61.53196965 118.58969474 63.31364832 117.82180786 65.09655762 C116.21692682 68.82235993 114.59643482 72.54129935 112.97688293 76.26074219 C112.16030252 78.13668971 111.34453951 80.01299324 110.52958679 81.88964844 C107.18975171 89.57954504 103.81190192 97.25168883 100.38763428 104.90435791 C99.57999628 106.71086471 98.77652352 108.51923185 97.97314453 110.32763672 C97.24587158 111.95209717 97.24587158 111.95209717 96.50390625 113.609375 C96.08955322 114.53717773 95.6752002 115.46498047 95.24829102 116.42089844 C94.83635498 117.27200195 94.42441895 118.12310547 94 119 C93.5767041 119.92611084 93.1534082 120.85222168 92.71728516 121.80639648 C91 124 91 124 88.27270508 124.56762695 C87.19915771 124.54144287 86.12561035 124.51525879 85.01953125 124.48828125 C83.85615234 124.47216797 82.69277344 124.45605469 81.49414062 124.43945312 C80.27919922 124.39755859 79.06425781 124.35566406 77.8125 124.3125 C76.58595703 124.28994141 75.35941406 124.26738281 74.09570312 124.24414062 C71.06258441 124.18513053 68.03189778 124.10284592 65 124 C59.80485166 114.01730616 55.40809318 103.77729233 51.05981445 93.40673828 C44.75769317 78.40569229 37.8628629 63.78155087 31 49 C30.67 80.68 30.34 112.36 30 145 C20.1 145 10.2 145 0 145 C0 97.15 0 49.3 0 0 Z " fill="#07283D" transform="translate(674,410)"/>
<path d="M0 0 C84.62610424 0 84.62610424 0 98.8125 13.25 C103.06492458 17.72742059 105.72694527 22.28616439 108 28 C108.31839844 28.73347656 108.63679687 29.46695312 108.96484375 30.22265625 C113.50392426 42.4175131 112.07951617 57.2743879 107 69 C101.94218074 79.77669089 93.95478509 85.9539455 84 92 C84.3309668 92.53141602 84.66193359 93.06283203 85.00292969 93.61035156 C91.71679826 104.39967237 98.36413393 115.22265302 104.87304688 126.13696289 C108.11355852 131.55913479 111.43593556 136.91025372 114.890625 142.19921875 C116 144 116 144 116 145 C104.45 145 92.9 145 81 145 C78.1846875 140.0190625 78.1846875 140.0190625 75.3125 134.9375 C74.37083984 133.27207153 74.37083984 133.27207153 73.41015625 131.57299805 C70.37400595 126.20303044 67.34065111 120.83151419 64.3125 115.45703125 C63.72557373 114.41619385 63.13864746 113.37535645 62.53393555 112.30297852 C61.4016581 110.2948762 60.27028464 108.28626384 59.13989258 106.27709961 C58.62579834 105.36581299 58.1117041 104.45452637 57.58203125 103.515625 C57.13061768 102.71415039 56.6792041 101.91267578 56.21411133 101.08691406 C55.20549166 99.35321591 54.11258852 97.66888277 53 96 C45.74 96 38.48 96 31 96 C31 112.17 31 128.34 31 145 C20.77 145 10.54 145 0 145 C0 97.15 0 49.3 0 0 Z " fill="#06283E" transform="translate(541,410)"/>
<path d="M0 0 C30.69 0 61.38 0 93 0 C93 8.91 93 17.82 93 27 C71.88 27 50.76 27 29 27 C29 37.56 29 48.12 29 59 C47.48 59 65.96 59 85 59 C85 67.58 85 76.16 85 85 C66.52 85 48.04 85 29 85 C29 95.89 29 106.78 29 118 C33.68058594 117.91621094 38.36117187 117.83242188 43.18359375 117.74609375 C46.14126888 117.69540556 49.09894302 117.64501504 52.05664062 117.59570312 C56.75567203 117.51733043 61.45466608 117.43783045 66.15356445 117.35180664 C69.94007467 117.28255485 73.72663881 117.2182009 77.51329231 117.15730476 C78.96107084 117.13314889 80.40882056 117.1072003 81.85653496 117.07946587 C83.87749893 117.04104978 85.89858968 117.00948426 87.91967773 116.97827148 C89.07217514 116.95828598 90.22467255 116.93830048 91.41209412 116.91770935 C94 117 94 117 95 118 C95 126.91 95 135.82 95 145 C63.65 145 32.3 145 0 145 C0 97.15 0 49.3 0 0 Z " fill="#05273C" transform="translate(425,410)"/>
<path d="M0 0 C26.59530786 -2.68602643 26.59530786 -2.68602643 33.41894531 1.47509766 C37.08329426 5.30276848 39.10297698 9.88456746 41.04101562 14.76318359 C42.51158903 18.19327361 44.53976131 21.01256496 46.6875 24.0625 C47.33074219 25.02285156 47.97398437 25.98320312 48.63671875 26.97265625 C49.08660156 27.64167969 49.53648437 28.31070312 50 29 C52.79362145 25.59450128 55.32797375 22.11557706 57.75 18.4375 C58.72527582 16.96024397 59.70407581 15.48494043 60.71484375 14.03173828 C62.12594302 11.88024605 62.12594302 11.88024605 63.50390625 8.94873047 C65.40765764 5.4403738 67.11357642 2.76872633 70 0 C75.23683741 -1.46236354 80.15514619 -1.14916945 85.5 -0.75 C86.90862569 -0.68971367 88.31750042 -0.63497678 89.7265625 -0.5859375 C93.157443 -0.44494241 96.5754871 -0.24824536 100 0 C99.13394604 4.06796059 97.36421251 6.51497387 94.875 9.875 C90.24735544 16.20674923 85.78495317 22.63987161 81.375 29.125 C80.73087158 30.07181641 80.08674316 31.01863281 79.4230957 31.99414062 C74.91090725 38.63771167 70.42542947 45.29823141 66 52 C76.72543656 69.08256618 88.02958852 85.83947828 99.85546875 102.1796875 C101 104 101 104 101 106 C78.61289933 110.22893108 78.61289933 110.22893108 69 106 C59.2226192 98.73156374 53.31931631 85.66058303 48 75 C47.54149658 75.69037354 47.08299316 76.38074707 46.6105957 77.09204102 C44.88759629 79.68512796 43.16351199 82.2774894 41.4387207 84.86938477 C40.33397541 86.53021473 39.23045205 88.19185728 38.12695312 89.85351562 C36.71763812 91.97070574 35.29319973 94.07791793 33.8527832 96.17407227 C32.00555529 98.84887741 32.00555529 98.84887741 30.90307617 101.32397461 C29.78655323 103.55109205 29.10272623 104.63941244 27 106 C21.86880812 106.85029386 16.85530867 106.65850945 11.6875 106.4375 C10.26505019 106.40236379 8.84251747 106.37042876 7.41992188 106.34179688 C3.94488468 106.26489551 0.47296826 106.14424469 -3 106 C-1.68932616 103.26091125 -0.24334401 100.76273077 1.4765625 98.26171875 C2.22401733 97.17153442 2.22401733 97.17153442 2.98657227 96.05932617 C3.52725342 95.27662354 4.06793457 94.4939209 4.625 93.6875 C5.46985962 92.45833862 5.46985962 92.45833862 6.33178711 91.2043457 C11.72988786 83.36276286 17.16907513 75.54947402 22.61767578 67.74291992 C23.87498186 65.94044517 25.12791916 64.13491136 26.37548828 62.32568359 C27.35375851 60.9251723 28.35174479 59.53773871 29.38623047 58.17822266 C31.10973565 55.8617786 32.05358557 54.5840524 31.78393555 51.64501953 C30.90105286 48.66614972 29.67360579 46.60466075 27.9296875 44.03515625 C27.28708984 43.08020264 26.64449219 42.12524902 25.98242188 41.14135742 C24.93924805 39.617323 24.93924805 39.617323 23.875 38.0625 C23.16666016 37.01231689 22.45832031 35.96213379 21.72851562 34.88012695 C18.05286125 29.4411189 14.33573063 24.03183222 10.6015625 18.6328125 C9.56733154 17.1322229 9.56733154 17.1322229 8.51220703 15.60131836 C7.18942738 13.6858397 5.85985613 11.77503017 4.52294922 9.86938477 C3.92756348 9.00885498 3.33217773 8.1483252 2.71875 7.26171875 C2.19216797 6.50850342 1.66558594 5.75528809 1.12304688 4.97924805 C0 3 0 3 0 0 Z " fill="#06283D" transform="translate(849,449)"/>
<path d="M0 0 C5.61 -0.0825 11.22 -0.165 17 -0.25 C18.75441406 -0.28641602 20.50882813 -0.32283203 22.31640625 -0.36035156 C23.73175845 -0.3720513 25.14712428 -0.38224007 26.5625 -0.390625 C27.27728516 -0.41108887 27.99207031 -0.43155273 28.72851562 -0.45263672 C34.23701222 -0.4563891 38.37981849 0.98630707 43 4 C47.92209363 9.05162241 49.29822638 13.84913261 49.375 20.8125 C49.2758609 26.72986506 48.79197129 31.32205411 45 36 C36.57118522 43.44872004 24.96993641 42.25420429 14.4375 42.125 C7.2909375 42.063125 7.2909375 42.063125 0 42 C0 28.14 0 14.28 0 0 Z " fill="#EFEBE6" transform="translate(572,437)"/>
<path d="M0 0 C23.1 0 46.2 0 70 0 C70 0.33 70 0.66 70 1 C47.56 1 25.12 1 2 1 C2 47.86 2 94.72 2 143 C10.91 143 19.82 143 29 143 C29 127.49 29 111.98 29 96 C29.33 96 29.66 96 30 96 C30.33 112.17 30.66 128.34 31 145 C20.77 145 10.54 145 0 145 C0 97.15 0 49.3 0 0 Z " fill="#010E22" transform="translate(541,410)"/>
<path d="M0 0 C0 8.91 0 17.82 0 27 C-31.02 27 -62.04 27 -94 27 C-94 18.75 -94 10.5 -94 2 C-93.67 2 -93.34 2 -93 2 C-93 9.26 -93 16.52 -93 24 C-90.69 23.34 -88.38 22.68 -86 22 C-86 22.66 -86 23.32 -86 24 C-85.14921875 23.91621094 -84.2984375 23.83242188 -83.421875 23.74609375 C-74.93517326 23.03284967 -66.72881054 23.05380778 -58.23144531 23.68139648 C-54.2698719 23.94858171 -50.56259493 24.01313858 -46.62109375 23.50390625 C-38.25377147 22.53295418 -29.77345317 23.16439855 -21.375 23.4375 C-19.58986127 23.49082401 -17.80470497 23.54356337 -16.01953125 23.59570312 C-11.67938292 23.7226434 -7.33985763 23.86158452 -3 24 C-3 16.74 -3 9.48 -3 2 C-23.79 2 -44.58 2 -66 2 C-66 1.67 -66 1.34 -66 1 C-65.25719788 0.98969254 -64.51439575 0.97938507 -63.74908447 0.96876526 C-56.74536904 0.8707459 -49.74173731 0.76822517 -42.73816299 0.66066074 C-39.13764699 0.60552067 -35.53712273 0.55211515 -31.93652344 0.50268555 C-28.46108835 0.45491019 -24.98574933 0.40256304 -21.51042938 0.34705925 C-19.54071081 0.31679173 -17.57092152 0.29124654 -15.60113525 0.26576233 C-14.40019226 0.24581711 -13.19924927 0.22587189 -11.96191406 0.20532227 C-10.90490295 0.18977798 -9.84789185 0.1742337 -8.7588501 0.15821838 C-6.06013158 0.0920706 -6.06013158 0.0920706 -3.75238037 -0.57533264 C-2 -1 -2 -1 0 0 Z " fill="#122D3F" transform="translate(520,528)"/>
<path d="M0 0 C0.66 0.33 1.32 0.66 2 1 C2 48.52 2 96.04 2 145 C11.9 145 21.8 145 32 145 C32 145.33 32 145.66 32 146 C27.60343827 146.02465504 23.2069128 146.04283842 18.81030273 146.05493164 C17.31355082 146.05997121 15.81680384 146.06680287 14.32006836 146.07543945 C12.17300193 146.08752159 10.02600038 146.09323191 7.87890625 146.09765625 C6.5854126 146.10289307 5.29191895 146.10812988 3.95922852 146.11352539 C1 146 1 146 0 145 C-0.1641042 142.66761295 -0.26113043 140.36334223 -0.31640625 138.02734375 C-0.34771385 136.89223358 -0.34771385 136.89223358 -0.37965393 135.73419189 C-0.44763031 133.13541622 -0.50597805 130.53654917 -0.5625 127.9375 C-0.58334656 127.02795563 -0.60419312 126.11841125 -0.62567139 125.18130493 C-1.05173841 105.9698728 -1.10976205 86.75676195 -1.12293625 67.54146194 C-1.12496836 65.22359095 -1.12871769 62.90572823 -1.13284302 60.58786011 C-1.16428812 40.36964267 -0.82644475 20.20268482 0 0 Z " fill="#F7F7F3" transform="translate(672,410)"/>
<path d="M0 0 C0.33 0 0.66 0 1 0 C1.33 5.28 1.66 10.56 2 16 C2.66 16 3.32 16 4 16 C6.29648649 18.5614657 7 19.47967572 7 23 C7.66 22.01 8.32 21.02 9 20 C8.35682586 27.5036983 6.83638004 34.62503047 5.0625 41.9375 C4.79759766 43.07251953 4.53269531 44.20753906 4.25976562 45.37695312 C4.00001953 46.45783203 3.74027344 47.53871094 3.47265625 48.65234375 C3.23812744 49.63195068 3.00359863 50.61155762 2.76196289 51.62084961 C2 54 2 54 0 56 C0 37.52 0 19.04 0 0 Z " fill="#D8221E" transform="translate(266,452)"/>
<path d="M0 0 C17.82 0 35.64 0 54 0 C54 8.58 54 17.16 54 26 C35.52 26 17.04 26 -2 26 C-2 25.67 -2 25.34 -2 25 C15.82 25 33.64 25 52 25 C52 17.41 52 9.82 52 2 C34.51 2 17.02 2 -1 2 C-0.67 1.34 -0.34 0.68 0 0 Z " fill="#051226" transform="translate(456,469)"/>
<path d="M0 0 C12.36918715 -0.02312154 24.73836919 -0.04091412 37.10757351 -0.05181217 C42.85045062 -0.05704141 48.59331301 -0.0641398 54.33618164 -0.07543945 C59.87339995 -0.08626687 65.41060404 -0.09227652 70.94783211 -0.09487724 C73.06544277 -0.09673176 75.18305262 -0.10035286 77.30065727 -0.10573006 C80.25571274 -0.11293856 83.21070871 -0.11399102 86.16577148 -0.11352539 C87.05049637 -0.11712067 87.93522125 -0.12071594 88.84675598 -0.12442017 C94.88594784 -0.11405216 94.88594784 -0.11405216 96 1 C96.38597783 5.46771474 96.47040295 9.95645907 96.625 14.4375 C96.6765625 15.70400391 96.728125 16.97050781 96.78125 18.27539062 C96.82507813 19.48259766 96.86890625 20.68980469 96.9140625 21.93359375 C96.9548291 23.04790771 96.9955957 24.16222168 97.03759766 25.31030273 C97 28 97 28 96 30 C95.34 30 94.68 30 94 30 C94 20.43 94 10.86 94 1 C62.98 1 31.96 1 0 1 C0 0.67 0 0.34 0 0 Z " fill="#FCFBF8" transform="translate(424,408)"/>
<path d="M0 0 C3 3 3 3 5 6 C4.01 7.485 4.01 7.485 3 9 C2.67 8.34 2.34 7.68 2 7 C1.67 8.98 1.34 10.96 1 13 C1.99 13.33 2.98 13.66 4 14 C3.01 14 2.02 14 1 14 C1 39.74 1 65.48 1 92 C0.67 92 0.34 92 0 92 C0 61.64 0 31.28 0 0 Z " fill="#E3DFD9" transform="translate(705,462)"/>
<path d="M0 0 C0.66 0 1.32 0 2 0 C2 15.18 2 30.36 2 46 C1.67 46 1.34 46 1 46 C0.67 41.38 0.34 36.76 0 32 C-0.33 32 -0.66 32 -1 32 C-1.19421438 29.04196565 -1.38066186 26.08379837 -1.5625 23.125 C-1.61857422 22.28324219 -1.67464844 21.44148438 -1.73242188 20.57421875 C-1.78076172 19.76855469 -1.82910156 18.96289062 -1.87890625 18.1328125 C-1.9260376 17.38918457 -1.97316895 16.64555664 -2.02172852 15.87939453 C-2 14 -2 14 -1 12 C-1.66 12 -2.32 12 -3 12 C-3.33 12.66 -3.66 13.32 -4 14 C-1.69230769 1.69230769 -1.69230769 1.69230769 0 0 Z " fill="#BAC1C1" transform="translate(800,456)"/>
<path d="M0 0 C0.33 0 0.66 0 1 0 C1 22.77 1 45.54 1 69 C1.66 69 2.32 69 3 69 C3 71.31 3 73.62 3 76 C2.01 75.67 1.02 75.34 0 75 C0 50.25 0 25.5 0 0 Z " fill="#DC4C45" transform="translate(107,507)"/>
<path d="M0 0 C0.33 0 0.66 0 1 0 C1 4.62 1 9.24 1 14 C9.58 14 18.16 14 27 14 C27 14.66 27 15.32 27 16 C17.76 16 8.52 16 -1 16 C-1.020625 13.545625 -1.04125 11.09125 -1.0625 8.5625 C-1.071604 7.78849854 -1.08070801 7.01449707 -1.09008789 6.21704102 C-1.09724913 4.47778283 -1.05024702 2.73854696 -1 1 C-0.67 0.67 -0.34 0.34 0 0 Z " fill="#02172C" transform="translate(802,539)"/>
<path d="M0 0 C3.58806317 3.38872633 6.45684799 6.76141332 9 11 C9 11.66 9 12.32 9 13 C-1.56 13 -12.12 13 -23 13 C-23 12.34 -23 11.68 -23 11 C-13.43 11 -3.86 11 6 11 C4.02 8.03 2.04 5.06 0 2 C0 1.34 0 0.68 0 0 Z " fill="#202E3C" transform="translate(941,542)"/>
<path d="M0 0 C0 0.99 0 1.98 0 3 C-0.78375 2.814375 -1.5675 2.62875 -2.375 2.4375 C-4.97089775 1.74037734 -4.97089775 1.74037734 -7 3 C-7 2.01 -7 1.02 -7 0 C-14.26 0 -21.52 0 -29 0 C-29.33 1.65 -29.66 3.3 -30 5 C-30.99 4.67 -31.98 4.34 -33 4 C-33.33 7.3 -33.66 10.6 -34 14 C-34.33 14 -34.66 14 -35 14 C-35 9.05 -35 4.1 -35 -1 C-30.65838576 -1.18898791 -26.31751869 -1.37139018 -21.97509766 -1.53710938 C-20.49870326 -1.59542647 -19.02245456 -1.65756463 -17.54638672 -1.72363281 C-15.42181939 -1.81805803 -13.29710326 -1.89862513 -11.171875 -1.9765625 C-9.8940918 -2.02893066 -8.61630859 -2.08129883 -7.29980469 -2.13525391 C-4.17769442 -2.00728342 -2.58596031 -1.66891271 0 0 Z " fill="#E7E4DF" transform="translate(609,439)"/>
<path d="M0 0 C1.23588867 0.0314209 2.47177734 0.0628418 3.74511719 0.09521484 C4.40533875 0.10370453 5.0655603 0.11219421 5.74578857 0.12094116 C7.84621272 0.15442384 9.94273765 0.22966713 12.04199219 0.30615234 C13.46901989 0.33625978 14.89610805 0.36363427 16.32324219 0.38818359 C19.81408392 0.45419017 23.30265729 0.55766409 26.79199219 0.68115234 C26.47949219 2.55615234 26.47949219 2.55615234 25.79199219 4.68115234 C24.80199219 5.34115234 23.81199219 6.00115234 22.79199219 6.68115234 C23.12199219 5.69115234 23.45199219 4.70115234 23.79199219 3.68115234 C14.88199219 3.35115234 5.97199219 3.02115234 -3.20800781 2.68115234 C-3.86800781 4.33115234 -4.52800781 5.98115234 -5.20800781 7.68115234 C-5.86800781 7.35115234 -6.52800781 7.02115234 -7.20800781 6.68115234 C-4.14337228 0.87975713 -4.14337228 0.87975713 0 0 Z " fill="#041427" transform="translate(922.2080078125,448.31884765625)"/>
<path d="M0 0 C3.08089673 2.77280706 4.68775452 5.06326356 6 9 C6.66 9 7.32 9 8 9 C8.66 10.32 9.32 11.64 10 13 C8.35 13.66 6.7 14.32 5 15 C4.505 13.515 4.505 13.515 4 12 C-6.56 11.67 -17.12 11.34 -28 11 C-27.67 10.34 -27.34 9.68 -27 9 C-11.16 9.495 -11.16 9.495 5 10 C3.35 7.36 1.7 4.72 0 2 C0 1.34 0 0.68 0 0 Z " fill="#F6F5F2" transform="translate(945,545)"/>
<path d="M0 0 C0.33 0.66 0.66 1.32 1 2 C0.01 3.485 0.01 3.485 -1 5 C-3.98095703 5.34057617 -3.98095703 5.34057617 -7.7578125 5.29296875 C-8.42086395 5.28872391 -9.08391541 5.28447906 -9.76705933 5.28010559 C-11.88678441 5.26329971 -14.00556188 5.22564701 -16.125 5.1875 C-17.56118419 5.17245549 -18.99738328 5.15876668 -20.43359375 5.14648438 C-23.95603764 5.1133909 -27.47792636 5.0615968 -31 5 C-30.34 3.68 -29.68 2.36 -29 1 C-28.67 1.66 -28.34 2.32 -28 3 C-19.09 3 -10.18 3 -1 3 C-0.67 2.01 -0.34 1.02 0 0 Z " fill="#07192D" transform="translate(877,550)"/>
<path d="M0 0 C0.33 0 0.66 0 1 0 C1.33 14.52 1.66 29.04 2 44 C2.33 44 2.66 44 3 44 C2.88601335 45.62580966 2.75844341 47.25067157 2.625 48.875 C2.52058594 50.23238281 2.52058594 50.23238281 2.4140625 51.6171875 C2 54 2 54 0 56 C0 37.52 0 19.04 0 0 Z " fill="#D30100" transform="translate(266,452)"/>
<path d="M0 0 C-2 2 -2 2 -5.25 2.3125 C-7.21187129 2.6745967 -7.21187129 2.6745967 -9 4 C-11.46563197 8.15236059 -13.26909712 12.49838446 -15 17 C-15.66 16.67 -16.32 16.34 -17 16 C-16.4740625 15.1028125 -16.4740625 15.1028125 -15.9375 14.1875 C-14.66695302 11.89186786 -14.66695302 11.89186786 -16 9 C-17.49985609 7.33289654 -17.49985609 7.33289654 -19 6 C-15.55930376 3.70620251 -14.27709699 3 -10 3 C-10 2.34 -10 1.68 -10 1 C-6.52674819 -0.1577506 -3.63932552 -0.06866652 0 0 Z " fill="#072236" transform="translate(809,453)"/>
<path d="M0 0 C0.33 0 0.66 0 1 0 C1 7.26 1 14.52 1 22 C3.31 21.34 5.62 20.68 8 20 C8 20.66 8 21.32 8 22 C9.39798828 21.87431641 9.39798828 21.87431641 10.82421875 21.74609375 C19.35725808 21.06448596 27.45987758 21.06389889 36 22 C36 22.33 36 22.66 36 23 C24.12 23 12.24 23 0 23 C0 15.41 0 7.82 0 0 Z " fill="#0B3248" transform="translate(426,530)"/>
<path d="M0 0 C0.33 0 0.66 0 1 0 C1.33 5.61 1.66 11.22 2 17 C2.33 17 2.66 17 3 17 C3.33 23.6 3.66 30.2 4 37 C2.02 37.495 2.02 37.495 0 38 C0 25.46 0 12.92 0 0 Z " fill="#244455" transform="translate(801,502)"/>
<path d="M0 0 C2.31 0 4.62 0 7 0 C6.34 1.98 5.68 3.96 5 6 C3.68 5.34 2.36 4.68 1 4 C1 5.65 1 7.3 1 9 C0.34 9 -0.32 9 -1 9 C-2.98 13.29 -4.96 17.58 -7 22 C-8.1817019 18.4548943 -7.7911988 17.85982494 -6.34765625 14.55078125 C-5.98349609 13.70322266 -5.61933594 12.85566406 -5.24414062 11.98242188 C-4.65922852 10.66081055 -4.65922852 10.66081055 -4.0625 9.3125 C-3.67642578 8.41982422 -3.29035156 7.52714844 -2.89257812 6.60742188 C-1.93688877 4.40107732 -0.97244531 2.19899853 0 0 Z " fill="#081D2F" transform="translate(789,412)"/>
<path d="M0 0 C0 8.91 0 17.82 0 27 C-1.92870117 23.14259767 -2.24283376 21.88370357 -2.1953125 17.796875 C-2.18886719 16.8171875 -2.18242188 15.8375 -2.17578125 14.828125 C-2.15902344 13.81234375 -2.14226563 12.7965625 -2.125 11.75 C-2.11597656 10.71875 -2.10695313 9.6875 -2.09765625 8.625 C-2.07412011 6.08309713 -2.04124023 3.5416672 -2 1 C-3.32 0.67 -4.64 0.34 -6 0 C-2.25 -1.125 -2.25 -1.125 0 0 Z " fill="#38424C" transform="translate(520,528)"/>
<path d="M0 0 C1.875 0.1875 1.875 0.1875 4 1 C4.268125 1.721875 4.53625 2.44375 4.8125 3.1875 C7.88283323 10.45934186 15.56420959 13.51000758 22.328125 16.703125 C25 18 25 18 28 20 C17.78042864 19.34768693 9.86451407 13.29088141 3 6 C1.66282243 3.99211114 0.85115032 2.26973419 0 0 Z " fill="#D4120E" transform="translate(113,597)"/>
<path d="M0 0 C5.90406331 5.06062569 8.36800971 11.41611653 9 19 C6.87491756 15.81237635 6.4979837 13.73487777 6 10 C5.1028125 10.3403125 5.1028125 10.3403125 4.1875 10.6875 C3.465625 10.790625 2.74375 10.89375 2 11 C0.25 9.5625 0.25 9.5625 -1 8 C-0.01 7.01 0.98 6.02 2 5 C1.34 3.35 0.68 1.7 0 0 Z " fill="#0C1E2E" transform="translate(641,426)"/>
<path d="M0 0 C2.31 0 4.62 0 7 0 C5.68775452 3.93673644 4.08089673 6.22719294 1 9 C-1.09230769 4.56923077 -1.09230769 4.56923077 -0.625 1.6875 C-0.41875 1.130625 -0.2125 0.57375 0 0 Z " fill="#F1EDEA" transform="translate(872,505)"/>
<path d="M0 0 C4.54075781 4.14010271 7.71842138 8.82390176 11 14 C10.67 14.66 10.34 15.32 10 16 C9.68546875 15.50628906 9.3709375 15.01257813 9.046875 14.50390625 C8.61890625 13.86324219 8.1909375 13.22257813 7.75 12.5625 C7.33234375 11.92441406 6.9146875 11.28632812 6.484375 10.62890625 C4.70199193 8.67297536 3.53973777 8.52318598 1 8 C0.34 7.34 -0.32 6.68 -1 6 C-0.34 5.01 0.32 4.02 1 3 C0.67 2.01 0.34 1.02 0 0 Z " fill="#EFEFED" transform="translate(906,538)"/>
<path d="M0 0 C3.32820054 -0.22692276 5.41801336 -0.32162419 8.375 1.3125 C10 3 10 3 10 6 C10.66 6 11.32 6 12 6 C12.66 10.29 13.32 14.58 14 19 C10.75065063 15.75065063 10.28851924 11.3272121 9.09765625 6.96875 C8.23053473 3.72898735 8.23053473 3.72898735 5 2 C3.34450469 1.61500109 1.6777567 1.27206865 0 1 C0 0.67 0 0.34 0 0 Z " fill="#D7130F" transform="translate(285,441)"/>
<path d="M0 0 C0.99 0.99 1.98 1.98 3 3 C3.33 2.34 3.66 1.68 4 1 C5.32 1.33 6.64 1.66 8 2 C7.01 3.485 7.01 3.485 6 5 C6.26676204 6.98491642 6.26676204 6.98491642 7 9 C7.33333333 10.33333333 7.66666667 11.66666667 8 13 C4.0963126 9.53005564 1.63411025 5.44775994 -1 1 C-0.67 0.67 -0.34 0.34 0 0 Z " fill="#F1EFEB" transform="translate(915,500)"/>
<path d="M0 0 C8.58 0 17.16 0 26 0 C26 0.33 26 0.66 26 1 C22.7 1 19.4 1 16 1 C15.34 2.32 14.68 3.64 14 5 C13.34 4.01 12.68 3.02 12 2 C9.11404054 1.41518879 9.11404054 1.41518879 5.875 1.3125 C4.77929688 1.24675781 3.68359375 1.18101562 2.5546875 1.11328125 C1.71164062 1.07589844 0.86859375 1.03851563 0 1 C0 0.67 0 0.34 0 0 Z " fill="#0B2F45" transform="translate(431,411)"/>
<path d="M0 0 C0.66 0.66 1.32 1.32 2 2 C4.57061311 2.64767793 4.57061311 2.64767793 7 3 C7 3.33 7 3.66 7 4 C0.4 4 -6.2 4 -13 4 C-13 3.67 -13 3.34 -13 3 C-6.565 2.505 -6.565 2.505 0 2 C0 1.34 0 0.68 0 0 Z " fill="#0D3449" transform="translate(753,529)"/>
<path d="M0 0 C0.66 0 1.32 0 2 0 C2 6.6 2 13.2 2 20 C1.67 20 1.34 20 1 20 C0.36938096 16.21628577 -0.05760982 12.65075439 0 8.8125 C0 5.82403705 -0.21545458 3.80194795 -1 1 C-0.67 0.67 -0.34 0.34 0 0 Z " fill="#0B3045" transform="translate(568,506)"/>
<path d="M0 0 C-0.33 2.31 -0.66 4.62 -1 7 C-1.99 7 -2.98 7 -4 7 C-4 6.34 -4 5.68 -4 5 C-4.66 5 -5.32 5 -6 5 C-6 4.01 -6 3.02 -6 2 C-3 0 -3 0 0 0 Z " fill="#D92D28" transform="translate(273,483)"/>
<path d="M0 0 C1.54571278 2.31856917 2.79618552 4.50638429 4 7 C3.01 7.33 2.02 7.66 1 8 C0.67 7.34 0.34 6.68 0 6 C-0.99 6.66 -1.98 7.32 -3 8 C-2.45276317 4.62537285 -1.9451 2.91765 0 0 Z " fill="#051D2F" transform="translate(780,435)"/>
<path d="M0 0 C2.79872437 2.52788007 4.45773019 4.20411134 5 8 C4.34 8 3.68 8 3 8 C2.01 8.495 2.01 8.495 1 9 C0.01 8.01 -0.98 7.02 -2 6 C-1.01 5.34 -0.02 4.68 1 4 C0.67 2.68 0.34 1.36 0 0 Z " fill="#091E30" transform="translate(881,452)"/>
<path d="M0 0 C0.99 1.485 0.99 1.485 2 3 C1.67 3.99 1.34 4.98 1 6 C1.99 6.33 2.98 6.66 4 7 C3.01 8.485 3.01 8.485 2 10 C1.60612212 12.32387947 1.26513915 14.65793749 1 17 C0.67 17 0.34 17 0 17 C0 11.39 0 5.78 0 0 Z " fill="#EFEFEA" transform="translate(372,398)"/>
<path d="M0 0 C1.32 0.66 2.64 1.32 4 2 C4 2.99 4 3.98 4 5 C2.35 5.33 0.7 5.66 -1 6 C-1.66 4.68 -2.32 3.36 -3 2 C-2.01 1.34 -1.02 0.68 0 0 Z " fill="#E7E2DC" transform="translate(928,1013)"/>
<path d="M0 0 C1.9375 0.375 1.9375 0.375 4 1 C4.33 1.66 4.66 2.32 5 3 C3.68 3 2.36 3 1 3 C0.67 2.01 0.34 1.02 0 0 Z M-2 1 C-1.01 1.99 -0.02 2.98 1 4 C0.34 5.32 -0.32 6.64 -1 8 C-2.0625 5.625 -2.0625 5.625 -3 3 C-2.67 2.34 -2.34 1.68 -2 1 Z " fill="#F0EEEA" transform="translate(937,526)"/>
<path d="M0 0 C0.144375 0.598125 0.28875 1.19625 0.4375 1.8125 C0.8872439 3.56150404 1.42892341 5.28677023 2 7 C1.34 7 0.68 7 0 7 C0 6.34 0 5.68 0 5 C-0.66 5 -1.32 5 -2 5 C-2.33 6.32 -2.66 7.64 -3 9 C-3.66 9 -4.32 9 -5 9 C-3.7508258 5.54074837 -2.32472205 2.85306797 0 0 Z " fill="#04192A" transform="translate(867,524)"/>
<path d="M0 0 C0.33 0 0.66 0 1 0 C0.88601335 1.62580966 0.75844341 3.25067157 0.625 4.875 C0.52058594 6.23238281 0.52058594 6.23238281 0.4140625 7.6171875 C0 10 0 10 -2 12 C-2.05395478 10.37536158 -2.09277195 8.75021459 -2.125 7.125 C-2.14820313 6.22007812 -2.17140625 5.31515625 -2.1953125 4.3828125 C-2 2 -2 2 0 0 Z " fill="#D30D0A" transform="translate(268,496)"/>
<path d="M0 0 C3.375 0.3125 3.375 0.3125 7 1 C7.66 1.99 8.32 2.98 9 4 C7.02 4.33 5.04 4.66 3 5 C3 4.34 3 3.68 3 3 C2.01 3 1.02 3 0 3 C0 2.01 0 1.02 0 0 Z " fill="#E9E1DC" transform="translate(138,617)"/>
<path d="M0 0 C1.32 0.33 2.64 0.66 4 1 C4 1.99 4 2.98 4 4 C1.69 4.33 -0.62 4.66 -3 5 C-2.01 3.35 -1.02 1.7 0 0 Z " fill="#F0EFEA" transform="translate(925,485)"/>
<path d="M0 0 C2.375 0.3125 2.375 0.3125 5 1 C5.66 1.99 6.32 2.98 7 4 C4.625 4.625 4.625 4.625 2 5 C1.34 4.34 0.68 3.68 0 3 C0 2.01 0 1.02 0 0 Z " fill="#E7E2DC" transform="translate(586,970)"/>
<path d="M0 0 C0.66 0.99 1.32 1.98 2 3 C0.79618552 5.49361571 -0.45428722 7.68143083 -2 10 C-2 7.03 -2 4.06 -2 1 C-1.34 0.67 -0.68 0.34 0 0 Z " fill="#DA2E2C" transform="translate(274,468)"/>
<path d="M0 0 C0.99 0 1.98 0 3 0 C3.125 3.375 3.125 3.375 3 7 C2.34 7.66 1.68 8.32 1 9 C0.34 7.35 -0.32 5.7 -1 4 C-0.34 4 0.32 4 1 4 C0.67 2.68 0.34 1.36 0 0 Z " fill="#DC302C" transform="translate(365,587)"/>
<path d="M0 0 C2.97 0.495 2.97 0.495 6 1 C4.74821404 3.50357192 3.00018842 5.06433379 1 7 C0.67 4.69 0.34 2.38 0 0 Z " fill="#DA332D" transform="translate(285,480)"/>
<path d="M0 0 C3.96 0 7.92 0 12 0 C12 0.33 12 0.66 12 1 C9.03 1 6.06 1 3 1 C2.34 2.32 1.68 3.64 1 5 C0.67 3.35 0.34 1.7 0 0 Z " fill="#093146" transform="translate(592,480)"/>
<path d="M0 0 C1.9375 0.8125 1.9375 0.8125 4 2 C4.33 2.99 4.66 3.98 5 5 C4.34 5 3.68 5 3 5 C3 4.34 3 3.68 3 3 C1.35 3.66 -0.3 4.32 -2 5 C-2.33 4.34 -2.66 3.68 -3 3 C-2.34 3 -1.68 3 -1 3 C-0.67 2.01 -0.34 1.02 0 0 Z " fill="#E7E2DC" transform="translate(970,921)"/>
<path d="M0 0 C2.64 0.66 5.28 1.32 8 2 C7.67 2.66 7.34 3.32 7 4 C6.34 3.67 5.68 3.34 5 3 C4.67 3.99 4.34 4.98 4 6 C2.62437146 4.71034824 1.29233607 3.37310707 0 2 C0 1.34 0 0.68 0 0 Z " fill="#F3F1ED" transform="translate(641,424)"/>
<path d="M0 0 C0.33 0 0.66 0 1 0 C0.51171875 6.0546875 0.51171875 6.0546875 0 8 C-0.99 8.66 -1.98 9.32 -3 10 C-3.33 8.68 -3.66 7.36 -4 6 C-3.34 6 -2.68 6 -2 6 C-1.34 4.02 -0.68 2.04 0 0 Z " fill="#F1F1F0" transform="translate(619,462)"/>
</svg>
